<svg class="hc-sticker-printify-mock-svg" xmlns="http://www.w3.org/2000/svg" width="2400" height="2400" viewBox="0 0 2400 2400" role="img" aria-label="Humanity sticker mockup with live object QR"><rect width="2400" height="2400" fill="#ffffff"/><rect x="144" y="144" width="2112" height="2112" rx="122.49600000000001" fill="#ffffff" stroke="rgba(0,0,0,0.06)" stroke-width="2.4"/><g class="hc-sticker-printify-mock-qr" transform="translate(679.2983606557377 334.08000000000004) scale(17.356721311475408)"><rect width="60" height="91.5" rx="3" fill="#ffffff"/><rect x="1.275" y="1.275" width="57.45" height="88.95" rx="2.475" fill="none" stroke="#db1b43" stroke-width="1.5"/><g transform="translate(5.5 5.5)"><path fill="#ffffff" d="M0 0h49v49H0z"/><path stroke="#db1b43" d="M2 2.5h7m1 0h3m2 0h6m1 0h1m1 0h1m2 0h1m3 0h2m5 0h1m1 0h7M2 3.5h1m5 0h1m4 0h6m8 0h1m1 0h3m2 0h1m2 0h1m2 0h1m5 0h1M2 4.5h1m1 0h3m1 0h1m6 0h1m1 0h2m4 0h3m1 0h5m3 0h1m1 0h1m2 0h1m1 0h3m1 0h1M2 5.5h1m1 0h3m1 0h1m3 0h1m2 0h2m3 0h1m2 0h1m2 0h1m1 0h1m2 0h1m1 0h2m2 0h2m1 0h1m1 0h3m1 0h1M2 6.5h1m1 0h3m1 0h1m1 0h2m2 0h1m3 0h12m1 0h2m1 0h1m1 0h3m1 0h1m1 0h3m1 0h1M2 7.5h1m5 0h1m1 0h2m2 0h1m1 0h1m3 0h3m3 0h1m2 0h2m2 0h2m5 0h1m5 0h1M2 8.5h7m1 0h1m1 0h1m1 0h1m1 0h1m1 0h1m1 0h1m1 0h1m1 0h1m1 0h1m1 0h1m1 0h1m1 0h1m1 0h1m1 0h1m1 0h1m1 0h7M14 9.5h2m5 0h2m3 0h1m5 0h3m2 0h1M3 10.5h7m1 0h2m2 0h2m3 0h7m1 0h1m3 0h2m1 0h1m2 0h1m2 0h2m3 0h1M2 11.5h1m9 0h1m1 0h2m4 0h1m2 0h1m1 0h3m3 0h2m1 0h1m2 0h3m1 0h1m3 0h1M4 12.5h2m2 0h1m1 0h1m3 0h2m1 0h4m1 0h1m2 0h1m1 0h4m2 0h1m2 0h1m2 0h2m2 0h3M3 13.5h3m1 0h1m2 0h1m3 0h3m4 0h4m1 0h1m1 0h1m3 0h3m2 0h10M4 14.5h2m2 0h2m1 0h1m4 0h1m2 0h3m1 0h2m2 0h2m4 0h1m6 0h1m4 0h1M5 15.5h2m3 0h1m1 0h1m1 0h1m4 0h1m2 0h1m2 0h2m2 0h5m1 0h1m1 0h3m2 0h2m1 0h2M3 16.5h2m3 0h2m1 0h2m1 0h1m1 0h1m1 0h1m1 0h2m2 0h1m2 0h2m2 0h2m2 0h1m2 0h1m1 0h2m1 0h3M3 17.5h2m1 0h1m2 0h1m2 0h1m1 0h1m3 0h5m2 0h1m2 0h6m1 0h3m1 0h1m1 0h5M2 18.5h1m5 0h7m2 0h5m4 0h1m1 0h1m4 0h1m1 0h3m1 0h2m2 0h2m1 0h1M3 19.5h1m1 0h1m1 0h1m2 0h2m4 0h5m5 0h1m4 0h5m2 0h2m1 0h2m1 0h1m1 0h1M3 20.5h2m1 0h3m1 0h1m2 0h1m2 0h3m2 0h1m1 0h1m2 0h4m1 0h3m1 0h3m1 0h1m1 0h1m1 0h3M3 21.5h2m1 0h1m7 0h1m1 0h1m1 0h1m13 0h1m1 0h2m2 0h2m2 0h3m1 0h1M3 22.5h1m2 0h8m2 0h1m1 0h1m3 0h6m1 0h1m1 0h2m3 0h7m1 0h3M2 23.5h1m1 0h1m1 0h1m3 0h3m2 0h1m3 0h4m3 0h1m5 0h4m1 0h2m3 0h1m3 0h1M6 24.5h1m1 0h1m1 0h3m1 0h1m1 0h1m2 0h2m1 0h1m1 0h1m1 0h2m1 0h1m1 0h2m2 0h2m1 0h1m1 0h1m1 0h1m1 0h2M4 25.5h3m3 0h1m1 0h3m1 0h3m1 0h1m1 0h1m3 0h2m2 0h3m1 0h1m3 0h1m3 0h4M2 26.5h1m3 0h5m2 0h3m3 0h8m4 0h3m4 0h6M3 27.5h1m2 0h2m1 0h1m1 0h1m2 0h1m1 0h1m2 0h1m2 0h4m1 0h3m1 0h4m5 0h2m1 0h2m1 0h1M3 28.5h1m3 0h3m1 0h8m1 0h2m3 0h2m1 0h3m2 0h4m2 0h1m1 0h2m1 0h2M4 29.5h1m1 0h2m1 0h1m2 0h2m2 0h2m1 0h1m1 0h2m3 0h1m4 0h1m1 0h1m1 0h1m1 0h4m2 0h3M2 30.5h2m1 0h4m2 0h1m5 0h1m1 0h2m7 0h1m10 0h5m2 0h1M2 31.5h2m2 0h2m1 0h2m2 0h3m1 0h2m2 0h1m1 0h1m1 0h1m1 0h1m2 0h4m1 0h1m2 0h1m1 0h1m3 0h1m1 0h1M4 32.5h1m3 0h1m3 0h3m2 0h1m2 0h1m4 0h2m1 0h1m2 0h2m3 0h1m2 0h1m4 0h2M2 33.5h2m1 0h3m4 0h3m1 0h1m3 0h1m1 0h1m1 0h1m1 0h1m3 0h1m2 0h3m1 0h3m1 0h1m1 0h2m1 0h1M3 34.5h2m2 0h3m3 0h1m1 0h1m1 0h3m1 0h1m3 0h1m9 0h2m4 0h3m2 0h1M2 35.5h1m1 0h4m3 0h1m1 0h2m1 0h1m1 0h3m1 0h2m1 0h2m1 0h2m1 0h2m4 0h5m1 0h3M6 36.5h1m1 0h1m3 0h3m1 0h1m1 0h2m3 0h1m1 0h1m3 0h3m1 0h1m4 0h2m4 0h2M3 37.5h4m4 0h1m1 0h1m1 0h2m2 0h1m3 0h1m2 0h1m1 0h1m2 0h1m1 0h2m1 0h1m4 0h4M2 38.5h1m2 0h2m1 0h2m2 0h1m1 0h1m2 0h1m2 0h7m1 0h1m2 0h1m1 0h1m1 0h2m1 0h5m1 0h1m1 0h1M10 39.5h3m1 0h1m2 0h2m1 0h3m3 0h2m2 0h1m1 0h2m2 0h1m1 0h1m3 0h1m1 0h1m1 0h1M2 40.5h7m1 0h1m1 0h2m2 0h1m1 0h1m1 0h1m1 0h1m1 0h1m1 0h4m1 0h1m1 0h3m1 0h2m1 0h1m1 0h1m1 0h2M2 41.5h1m5 0h1m1 0h1m6 0h6m3 0h1m1 0h5m3 0h1m1 0h1m3 0h1m1 0h1m1 0h1M2 42.5h1m1 0h3m1 0h1m1 0h3m2 0h1m2 0h1m1 0h8m3 0h1m1 0h1m2 0h1m1 0h6m1 0h2M2 43.5h1m1 0h3m1 0h1m1 0h1m2 0h2m1 0h4m1 0h7m4 0h1m2 0h1m6 0h1m1 0h1M2 44.5h1m1 0h3m1 0h1m1 0h5m3 0h3m1 0h2m4 0h1m1 0h2m2 0h5m6 0h1M2 45.5h1m5 0h1m1 0h2m6 0h2m8 0h2m1 0h1m2 0h1m1 0h1m1 0h2m1 0h1m2 0h1M2 46.5h7m2 0h4m10 0h1m1 0h1m2 0h1m2 0h1m2 0h2m1 0h2m2 0h1m1 0h1"/><defs><mask id="hc-qr-finder-logo-mask-s20aggb8c28" maskUnits="userSpaceOnUse" mask-type="alpha"><path stroke="#db1b43" d="M2 2.5h7m1 0h3m2 0h6m1 0h1m1 0h1m2 0h1m3 0h2m5 0h1m1 0h7M2 3.5h1m5 0h1m4 0h6m8 0h1m1 0h3m2 0h1m2 0h1m2 0h1m5 0h1M2 4.5h1m1 0h3m1 0h1m6 0h1m1 0h2m4 0h3m1 0h5m3 0h1m1 0h1m2 0h1m1 0h3m1 0h1M2 5.5h1m1 0h3m1 0h1m3 0h1m2 0h2m3 0h1m2 0h1m2 0h1m1 0h1m2 0h1m1 0h2m2 0h2m1 0h1m1 0h3m1 0h1M2 6.5h1m1 0h3m1 0h1m1 0h2m2 0h1m3 0h12m1 0h2m1 0h1m1 0h3m1 0h1m1 0h3m1 0h1M2 7.5h1m5 0h1m1 0h2m2 0h1m1 0h1m3 0h3m3 0h1m2 0h2m2 0h2m5 0h1m5 0h1M2 8.5h7m1 0h1m1 0h1m1 0h1m1 0h1m1 0h1m1 0h1m1 0h1m1 0h1m1 0h1m1 0h1m1 0h1m1 0h1m1 0h1m1 0h1m1 0h1m1 0h7M14 9.5h2m5 0h2m3 0h1m5 0h3m2 0h1M3 10.5h7m1 0h2m2 0h2m3 0h7m1 0h1m3 0h2m1 0h1m2 0h1m2 0h2m3 0h1M2 11.5h1m9 0h1m1 0h2m4 0h1m2 0h1m1 0h3m3 0h2m1 0h1m2 0h3m1 0h1m3 0h1M4 12.5h2m2 0h1m1 0h1m3 0h2m1 0h4m1 0h1m2 0h1m1 0h4m2 0h1m2 0h1m2 0h2m2 0h3M3 13.5h3m1 0h1m2 0h1m3 0h3m4 0h4m1 0h1m1 0h1m3 0h3m2 0h10M4 14.5h2m2 0h2m1 0h1m4 0h1m2 0h3m1 0h2m2 0h2m4 0h1m6 0h1m4 0h1M5 15.5h2m3 0h1m1 0h1m1 0h1m4 0h1m2 0h1m2 0h2m2 0h5m1 0h1m1 0h3m2 0h2m1 0h2M3 16.5h2m3 0h2m1 0h2m1 0h1m1 0h1m1 0h1m1 0h2m2 0h1m2 0h2m2 0h2m2 0h1m2 0h1m1 0h2m1 0h3M3 17.5h2m1 0h1m2 0h1m2 0h1m1 0h1m3 0h5m2 0h1m2 0h6m1 0h3m1 0h1m1 0h5M2 18.5h1m5 0h7m2 0h5m4 0h1m1 0h1m4 0h1m1 0h3m1 0h2m2 0h2m1 0h1M3 19.5h1m1 0h1m1 0h1m2 0h2m4 0h5m5 0h1m4 0h5m2 0h2m1 0h2m1 0h1m1 0h1M3 20.5h2m1 0h3m1 0h1m2 0h1m2 0h3m2 0h1m1 0h1m2 0h4m1 0h3m1 0h3m1 0h1m1 0h1m1 0h3M3 21.5h2m1 0h1m7 0h1m1 0h1m1 0h1m13 0h1m1 0h2m2 0h2m2 0h3m1 0h1M3 22.5h1m2 0h8m2 0h1m1 0h1m3 0h6m1 0h1m1 0h2m3 0h7m1 0h3M2 23.5h1m1 0h1m1 0h1m3 0h3m2 0h1m3 0h4m3 0h1m5 0h4m1 0h2m3 0h1m3 0h1M6 24.5h1m1 0h1m1 0h3m1 0h1m1 0h1m2 0h2m1 0h1m1 0h1m1 0h2m1 0h1m1 0h2m2 0h2m1 0h1m1 0h1m1 0h1m1 0h2M4 25.5h3m3 0h1m1 0h3m1 0h3m1 0h1m1 0h1m3 0h2m2 0h3m1 0h1m3 0h1m3 0h4M2 26.5h1m3 0h5m2 0h3m3 0h8m4 0h3m4 0h6M3 27.5h1m2 0h2m1 0h1m1 0h1m2 0h1m1 0h1m2 0h1m2 0h4m1 0h3m1 0h4m5 0h2m1 0h2m1 0h1M3 28.5h1m3 0h3m1 0h8m1 0h2m3 0h2m1 0h3m2 0h4m2 0h1m1 0h2m1 0h2M4 29.5h1m1 0h2m1 0h1m2 0h2m2 0h2m1 0h1m1 0h2m3 0h1m4 0h1m1 0h1m1 0h1m1 0h4m2 0h3M2 30.5h2m1 0h4m2 0h1m5 0h1m1 0h2m7 0h1m10 0h5m2 0h1M2 31.5h2m2 0h2m1 0h2m2 0h3m1 0h2m2 0h1m1 0h1m1 0h1m1 0h1m2 0h4m1 0h1m2 0h1m1 0h1m3 0h1m1 0h1M4 32.5h1m3 0h1m3 0h3m2 0h1m2 0h1m4 0h2m1 0h1m2 0h2m3 0h1m2 0h1m4 0h2M2 33.5h2m1 0h3m4 0h3m1 0h1m3 0h1m1 0h1m1 0h1m1 0h1m3 0h1m2 0h3m1 0h3m1 0h1m1 0h2m1 0h1M3 34.5h2m2 0h3m3 0h1m1 0h1m1 0h3m1 0h1m3 0h1m9 0h2m4 0h3m2 0h1M2 35.5h1m1 0h4m3 0h1m1 0h2m1 0h1m1 0h3m1 0h2m1 0h2m1 0h2m1 0h2m4 0h5m1 0h3M6 36.5h1m1 0h1m3 0h3m1 0h1m1 0h2m3 0h1m1 0h1m3 0h3m1 0h1m4 0h2m4 0h2M3 37.5h4m4 0h1m1 0h1m1 0h2m2 0h1m3 0h1m2 0h1m1 0h1m2 0h1m1 0h2m1 0h1m4 0h4M2 38.5h1m2 0h2m1 0h2m2 0h1m1 0h1m2 0h1m2 0h7m1 0h1m2 0h1m1 0h1m1 0h2m1 0h5m1 0h1m1 0h1M10 39.5h3m1 0h1m2 0h2m1 0h3m3 0h2m2 0h1m1 0h2m2 0h1m1 0h1m3 0h1m1 0h1m1 0h1M2 40.5h7m1 0h1m1 0h2m2 0h1m1 0h1m1 0h1m1 0h1m1 0h1m1 0h4m1 0h1m1 0h3m1 0h2m1 0h1m1 0h1m1 0h2M2 41.5h1m5 0h1m1 0h1m6 0h6m3 0h1m1 0h5m3 0h1m1 0h1m3 0h1m1 0h1m1 0h1M2 42.5h1m1 0h3m1 0h1m1 0h3m2 0h1m2 0h1m1 0h8m3 0h1m1 0h1m2 0h1m1 0h6m1 0h2M2 43.5h1m1 0h3m1 0h1m1 0h1m2 0h2m1 0h4m1 0h7m4 0h1m2 0h1m6 0h1m1 0h1M2 44.5h1m1 0h3m1 0h1m1 0h5m3 0h3m1 0h2m4 0h1m1 0h2m2 0h5m6 0h1M2 45.5h1m5 0h1m1 0h2m6 0h2m8 0h2m1 0h1m2 0h1m1 0h1m1 0h2m1 0h1m2 0h1M2 46.5h7m2 0h4m10 0h1m1 0h1m2 0h1m2 0h1m2 0h2m1 0h2m2 0h1m1 0h1"/></mask></defs><g class="hc-qr-finder-logo" aria-hidden="true" mask="url(#hc-qr-finder-logo-mask-s20aggb8c28)"><circle class="hc-qr-finder-logo-outer" cx="5.5" cy="5.5" r="5.145" fill="#c9979f" opacity="0.52"/><circle class="hc-qr-finder-logo-inner" cx="5.5" cy="5.5" r="2.3667" fill="#141414" opacity="0.9"/></g></g><text class="hc-qr-frame-pill-text" x="30" y="62.98" text-anchor="middle" font-family="system-ui,sans-serif" font-size="5.5" font-weight="600" letter-spacing="0.14em" fill="#db1b43">LIVE OBJECT</text><text class="hc-qr-frame-footer-text" x="30" y="75" text-anchor="middle" font-family="system-ui,sans-serif" font-size="5" font-weight="500" fill="#8a8a8a">humanity.llc</text><text class="hc-qr-frame-code-text" x="30" y="85.26" text-anchor="middle" font-family="ui-monospace,monospace" font-size="5" font-weight="600" letter-spacing="0.08em" fill="#db1b43">HC-KHH6-PP8D</text></g><text class="hc-sticker-printify-mock-ink-hint" x="1200" y="2022.37" text-anchor="middle" font-family="system-ui,-apple-system,sans-serif" font-size="67" font-weight="600" letter-spacing="4.02" fill="#db1b43" opacity="0.78">UPDATES FROM YOUR PHONE</text></svg>